<svg width="322" height="58" viewBox="0 0 322 58" fill="none" xmlns="http://www.w3.org/2000/svg">
<path d="M0.2 5.24L1 0.999996H10.6C16.2 0.999996 19 3.77333 19 9.32V31.8C19 36.76 16.2 39.24 10.6 39.24H5.88V57H1.64V5.24H0.2ZM10.6 5.24H5.88V35H10.6C13.3733 35 14.76 33.9333 14.76 31.8V9.32C14.76 6.6 13.3733 5.24 10.6 5.24ZM39.6825 52.76L39.2025 57H23.2025V5.24H21.7625L22.5625 0.999996H39.6825L39.2025 5.24H27.4425V26.84H39.6825L39.2025 31.08H27.4425V52.76H39.6825ZM42.4656 5.24L43.2656 0.999996H52.8656C58.4656 0.999996 61.2656 3.77333 61.2656 9.32V31.8C61.2656 35 60.039 37.1867 57.5856 38.36L62.9456 57H58.6256L53.5856 39.24C53.3723 39.24 53.1323 39.24 52.8656 39.24H48.1456V57H43.9056V5.24H42.4656ZM52.8656 5.24H48.1456V35H52.8656C55.639 35 57.0256 33.9333 57.0256 31.8V9.32C57.0256 6.6 55.639 5.24 52.8656 5.24ZM65.6244 57V5.24H64.1844L64.9844 0.999996H69.8644V57H65.6244ZM77.34 41V49.24C77.34 51.96 78.7267 53.32 81.5 53.32H82.94C85.7133 53.32 87.1 52.2533 87.1 50.12L87.02 34.2L75.02 28.6C73.74 28.0133 73.1 26.9467 73.1 25.4V8.12C73.1 3.16 75.9 0.679996 81.5 0.679996H83.66C88.78 0.946662 91.34 3.72 91.34 9V20.12L87.1 19.64V9C87.1 6.28 85.7133 4.92 82.94 4.92H81.5C78.7267 4.92 77.34 5.98667 77.34 8.12L77.42 25.24L89.42 30.92C90.7 31.5067 91.34 32.5733 91.34 34.12V50.12C91.34 55.08 88.54 57.56 82.94 57.56H80.78C75.66 57.2933 73.1 54.52 73.1 49.24V41H77.34ZM94.1156 57L98.6756 5.24H97.6356L98.4356 0.999996H108.276L113.236 57H109.556L108.516 45.72H98.8356L97.7956 57H94.1156ZM99.1556 41.48H108.196L104.916 5.24H102.436L99.1556 41.48ZM116.718 57V5.24H115.278L116.078 0.999996H120.958V57H116.718ZM166.649 45.56C166.649 49.6133 165.742 52.5467 163.929 54.36C162.169 56.12 159.235 57 155.129 57H140.089V11.64H138.569L139.689 0.999996H155.129C159.235 0.999996 162.169 1.88 163.929 3.64C165.742 5.4 166.649 8.33333 166.649 12.44V45.56ZM155.369 46.36C155.635 46.36 155.769 46.2267 155.769 45.96V12.04C155.769 11.7733 155.635 11.64 155.369 11.64H150.969V46.36H155.369ZM171.339 57V11.64H169.819L170.939 0.999996H182.219V57H171.339ZM199.114 34.36L199.754 23.72H213.194V45.88C213.194 49.9333 212.288 52.8667 210.474 54.68C208.714 56.44 205.781 57.32 201.674 57.32H197.354C193.248 57.32 190.288 56.44 188.474 54.68C186.714 52.8667 185.834 49.9333 185.834 45.88V12.12C185.834 8.01333 186.714 5.08 188.474 3.32C190.288 1.56 193.248 0.679996 197.354 0.679996H201.674C205.781 0.679996 208.714 1.56 210.474 3.32C212.288 5.08 213.194 8.01333 213.194 12.12V20.04L202.314 18.84V11.72C202.314 11.4533 202.181 11.32 201.914 11.32H197.114C196.848 11.32 196.714 11.4533 196.714 11.72V46.28C196.714 46.5467 196.848 46.68 197.114 46.68H201.914C202.181 46.68 202.314 46.5467 202.314 46.28V34.36H199.114ZM217.511 57V11.64H215.991L217.111 0.999996H228.391V57H217.511ZM239.056 57V11.64H231.616V0.999996H257.296V11.64H249.936V57H239.056ZM257.319 57L263.959 11.64H262.279L263.399 0.999996H282.039L290.279 57H279.479L278.279 49H269.319L268.119 57H257.319ZM270.839 38.36H276.759L273.799 18.36L270.839 38.36ZM295.011 57.08V11.72H293.491L294.611 1.08H305.891V46.36H321.171L320.531 57H305.891V57.08H295.011Z" fill="white"/>
</svg>
